<?xml version="1.0" encoding="UTF-8"?>
<svg id="Calque_1" data-name="Calque 1" xmlns="http://www.w3.org/2000/svg" viewBox="0 0 39.14 91.54">
  <path d="m19.61,51.3q6.43,4.43-.53,10.1,6.86,5.55.07,10.49c1.68,1.85,4.68,3.71,4.67,5.56,0,1.86-2.99,3.72-4.29,5.16,1.48,2.1,2.96,4.18,4.43,6.26-1.95.9-3.9,1.79-5.85,2.69-.2-.36-.4-.71-.6-1.07.94-.77,1.89-1.54,2.63-2.15-1.75-2.06-4.58-3.94-4.58-5.83,0-1.67,3.15-3.34,4.6-4.73-1.54-1.71-4.52-3.56-4.55-5.47-.03-1.87,2.95-3.79,4.36-5.41-1.41-1.57-4.4-3.44-4.41-5.33,0-1.84,3.04-3.69,4.36-5.12-1.44-1.71-4.35-3.65-4.35-5.59,0-1.88,3-3.76,3.83-4.69-.94-4.25-2.34-8.06-2.51-11.92-.21-4.73-1.93-6.86-6.72-7.31C2.02,26.18-2.89,17.9,1.87,11.48,6,5.91,11.48.38,19.49.02c4.09-.18,7.94.74,10.33,4.71.44.73,1.4,1.25,2.23,1.63,5.56,2.51,7.8,6.41,6.91,12.18-.77,5-3.93,7.74-10.1,8.43-3.92.44-6.25,2.19-5.99,6.35.23,3.59,1.27,7.24.82,10.72-.31,2.44-2.52,4.63-4.07,7.25Zm7.19-40.31c-.18.48-.37.96-.55,1.44,2.08,2.09,4.35,4.32.82,6.68-2.69,1.8-6.41-.55-5.84-4.11.52-3.26,2.55-6.29,4-9.61-4.42-3.37-7.95-3.17-11.68,1.21,3.85,2.25,5.75,5.57,4.5,9.94-.36,1.25-2.06,2.51-3.4,2.94-.88.28-2.85-.66-3.22-1.53-.46-1.1.1-2.7.43-4.03.15-.6.8-1.07,1.23-1.6-.25-.54-.5-1.08-.75-1.61-2.25.66-5.44.67-6.5,2.17-1.23,1.75-1.52,5.33-.5,7.15,1,1.77,4.08,2.7,6.42,3.29,2.55.65,5.3.48,7.88.66,2.74-.2,5.52,0,8.05-.71,2.45-.68,5.6-1.75,6.67-3.65.98-1.74.34-5.42-1-7.11-1.1-1.38-4.3-1.07-6.57-1.52Z"/>
</svg>